<svg width="102" height="16" viewBox="0 0 102 16" fill="none" xmlns="http://www.w3.org/2000/svg">
<path d="M0.62 15C0.513333 15 0.44 14.9733 0.4 14.92C0.36 14.8667 0.34 14.8 0.34 14.72V1.08C0.34 0.986666 0.36 0.92 0.4 0.879999C0.453333 0.826666 0.526667 0.799999 0.62 0.799999H2.44C2.52 0.799999 2.58667 0.813333 2.64 0.84C2.70667 0.866666 2.77333 0.906666 2.84 0.96L2.88 1.02L10.62 10.96L9.72 11.52V1.08C9.72 0.986666 9.74 0.92 9.78 0.879999C9.83333 0.826666 9.90667 0.799999 10 0.799999H12.46C12.5533 0.799999 12.62 0.826666 12.66 0.879999C12.7133 0.933333 12.74 0.999999 12.74 1.08V14.72C12.74 14.8133 12.7133 14.8867 12.66 14.94C12.62 14.98 12.5533 15 12.46 15H10.64C10.6 15 10.56 15 10.52 15C10.4933 15 10.46 14.9867 10.42 14.96C10.38 14.9467 10.3333 14.9267 10.28 14.9C10.24 14.86 10.2067 14.82 10.18 14.78L2.48 4.94L3.36 4.3V14.72C3.36 14.8133 3.33333 14.8867 3.28 14.94C3.22667 14.98 3.16 15 3.08 15H0.62ZM20.1581 15.2C19.2115 15.2 18.3315 14.98 17.5181 14.54C16.7048 14.1 16.0581 13.4933 15.5781 12.72C15.1115 11.9467 14.8781 11.0933 14.8781 10.16C14.8781 9.22667 15.1115 8.38667 15.5781 7.64C16.0581 6.88 16.7048 6.28667 17.5181 5.86C18.3315 5.42 19.2115 5.2 20.1581 5.2C21.0915 5.2 21.9648 5.42 22.7781 5.86C23.5915 6.28667 24.2381 6.88 24.7181 7.64C25.1981 8.38667 25.4381 9.22667 25.4381 10.16C25.4381 11.0933 25.1915 11.9467 24.6981 12.72C24.2181 13.4933 23.5715 14.1 22.7581 14.54C21.9581 14.98 21.0915 15.2 20.1581 15.2ZM20.1581 12.7C20.6248 12.7 21.0381 12.5933 21.3981 12.38C21.7715 12.1667 22.0581 11.8733 22.2581 11.5C22.4715 11.1133 22.5781 10.6733 22.5781 10.18C22.5781 9.7 22.4715 9.27333 22.2581 8.9C22.0581 8.52667 21.7715 8.23333 21.3981 8.02C21.0381 7.80667 20.6248 7.7 20.1581 7.7C19.6781 7.7 19.2515 7.80667 18.8781 8.02C18.5181 8.23333 18.2315 8.52667 18.0181 8.9C17.8181 9.27333 17.7181 9.7 17.7181 10.18C17.7181 10.6733 17.8181 11.1133 18.0181 11.5C18.2315 11.8733 18.5181 12.1667 18.8781 12.38C19.2515 12.5933 19.6781 12.7 20.1581 12.7ZM30.4941 15C30.3874 15 30.3007 14.98 30.2341 14.94C30.1807 14.8867 30.1341 14.82 30.0941 14.74L26.3141 5.8C26.2474 5.66667 26.2341 5.56667 26.2741 5.5C26.3274 5.43333 26.4207 5.4 26.5541 5.4H29.2541C29.3607 5.4 29.4407 5.42667 29.4941 5.48C29.5474 5.52 29.5941 5.58667 29.6341 5.68L32.1941 13.1H31.1341L33.5741 5.68C33.6007 5.58667 33.6407 5.52 33.6941 5.48C33.7607 5.42667 33.8407 5.4 33.9341 5.4H36.5541C36.7141 5.4 36.8141 5.44 36.8541 5.52C36.8941 5.58667 36.8874 5.68667 36.8341 5.82L33.0341 14.74C32.9941 14.8333 32.9407 14.9 32.8741 14.94C32.8074 14.98 32.7274 15 32.6341 15H30.4941ZM43.2306 15.18C42.1106 15.18 41.1306 14.9867 40.2906 14.6C39.464 14.2 38.824 13.6333 38.3706 12.9C37.9173 12.1667 37.6906 11.3067 37.6906 10.32C37.6906 9.29333 37.9173 8.39333 38.3706 7.62C38.824 6.84667 39.4373 6.25333 40.2106 5.84C40.9973 5.41333 41.8506 5.2 42.7706 5.2C43.6373 5.2 44.4106 5.36667 45.0906 5.7C45.7706 6.03333 46.304 6.53333 46.6906 7.2C47.0906 7.86667 47.2906 8.68667 47.2906 9.66C47.2906 9.94 47.264 10.16 47.2106 10.32C47.1706 10.4667 47.0973 10.5667 46.9906 10.62C46.8973 10.6733 46.7573 10.7 46.5706 10.7H39.4706V9.02H45.8306L44.6906 10.04C44.704 9.92 44.7106 9.8 44.7106 9.68C44.7106 9.54667 44.7106 9.42 44.7106 9.3C44.7106 8.87333 44.6306 8.5 44.4706 8.18C44.324 7.86 44.104 7.61333 43.8106 7.44C43.5306 7.25333 43.1973 7.16 42.8106 7.16C42.344 7.16 41.9373 7.28 41.5906 7.52C41.2573 7.74667 40.9973 8.08 40.8106 8.52C40.6373 8.96 40.5506 9.5 40.5506 10.14C40.5506 10.7667 40.664 11.2867 40.8906 11.7C41.1306 12.1133 41.484 12.4267 41.9506 12.64C42.4173 12.8533 42.9973 12.96 43.6906 12.96C44.1173 12.96 44.5506 12.9133 44.9906 12.82C45.444 12.7267 45.8573 12.6 46.2306 12.44C46.3106 12.4267 46.3773 12.4133 46.4306 12.4C46.4973 12.3733 46.5573 12.3467 46.6106 12.32C46.664 12.3067 46.7106 12.2933 46.7506 12.28C46.7906 12.2667 46.824 12.26 46.8506 12.26C46.9306 12.26 46.984 12.2867 47.0106 12.34C47.0373 12.3933 47.0506 12.48 47.0506 12.6V13.9C47.0506 13.9933 47.0373 14.0667 47.0106 14.12C46.9973 14.1733 46.964 14.22 46.9106 14.26L46.8506 14.32C46.4106 14.5733 45.864 14.78 45.2106 14.94C44.5706 15.1 43.9106 15.18 43.2306 15.18ZM52.143 15.2C51.1696 15.2 50.443 14.9533 49.963 14.46C49.483 13.9533 49.243 13.1867 49.243 12.16V0.279999C49.243 0.186666 49.263 0.119999 49.303 0.079999C49.3563 0.0266655 49.4296 -1.19209e-06 49.523 -1.19209e-06H52.103C52.1963 -1.19209e-06 52.263 0.0266655 52.303 0.079999C52.3563 0.133332 52.383 0.199999 52.383 0.279999V11.72C52.383 12.0533 52.4563 12.3 52.603 12.46C52.7496 12.62 52.963 12.7 53.243 12.7C53.4563 12.7 53.6563 12.6667 53.843 12.6C53.9496 12.5733 54.023 12.5733 54.063 12.6C54.103 12.6267 54.123 12.7 54.123 12.82V14.5C54.123 14.6333 54.0963 14.7333 54.043 14.8C53.9896 14.8667 53.9096 14.92 53.803 14.96C53.6296 15.04 53.3896 15.1 53.083 15.14C52.7896 15.18 52.4763 15.2 52.143 15.2ZM59.8116 15.18C58.9982 15.18 58.2316 14.9667 57.5116 14.54C56.7916 14.1 56.2182 13.5 55.7916 12.74C55.3649 11.98 55.1516 11.1267 55.1516 10.18C55.1516 9.22 55.3582 8.36667 55.7716 7.62C56.1982 6.86 56.7649 6.26667 57.4716 5.84C58.1916 5.41333 58.9716 5.2 59.8116 5.2C60.6649 5.2 61.4049 5.4 62.0316 5.8C62.6716 6.2 63.1182 6.81333 63.3716 7.64V12.6C63.2249 13.1733 62.9716 13.6533 62.6116 14.04C62.2516 14.4267 61.8316 14.7133 61.3516 14.9C60.8716 15.0867 60.3582 15.18 59.8116 15.18ZM60.6916 12.68C61.1582 12.68 61.5716 12.58 61.9316 12.38C62.3049 12.18 62.5982 11.8933 62.8116 11.52C63.0249 11.1333 63.1316 10.6867 63.1316 10.18C63.1316 9.68667 63.0249 9.25333 62.8116 8.88C62.6116 8.49333 62.3249 8.2 61.9516 8C61.5782 7.78667 61.1582 7.68 60.6916 7.68C60.2249 7.68 59.8049 7.78667 59.4316 8C59.0582 8.21333 58.7649 8.50667 58.5516 8.88C58.3382 9.25333 58.2316 9.68667 58.2316 10.18C58.2316 10.6867 58.3382 11.1333 58.5516 11.52C58.7649 11.8933 59.0582 12.18 59.4316 12.38C59.8182 12.58 60.2382 12.68 60.6916 12.68ZM63.4116 15C63.3049 15 63.2316 14.9733 63.1916 14.92C63.1516 14.8667 63.1316 14.8 63.1316 14.72V12.7V12.62V7.7V7.6V5.68C63.1316 5.58667 63.1516 5.52 63.1916 5.48C63.2449 5.42667 63.3182 5.4 63.4116 5.4H65.9316C66.0249 5.4 66.0916 5.42667 66.1316 5.48C66.1849 5.53333 66.2116 5.6 66.2116 5.68V14.72C66.2116 14.8133 66.1849 14.8867 66.1316 14.94C66.0916 14.98 66.0249 15 65.9316 15H63.4116ZM69.5608 12.86H72.7808C73.3408 12.86 73.8208 12.78 74.2208 12.62C74.6341 12.4467 74.9474 12.2067 75.1608 11.9C75.3874 11.58 75.5008 11.2067 75.5008 10.78C75.5008 10.1667 75.2674 9.68667 74.8008 9.34C74.3474 8.98 73.7274 8.8 72.9408 8.8H69.5608V6.66H72.7608C73.4674 6.66 74.0208 6.5 74.4208 6.18C74.8208 5.84667 75.0208 5.38 75.0208 4.78C75.0208 4.19333 74.8074 3.74667 74.3808 3.44C73.9674 3.12 73.3808 2.96 72.6208 2.96H69.5608V0.799999H72.9008C74.5008 0.799999 75.7541 1.10667 76.6608 1.72C77.5674 2.33333 78.0208 3.18667 78.0208 4.28C78.0208 5.05333 77.7941 5.72 77.3408 6.28C76.9008 6.84 76.3141 7.21333 75.5808 7.4V7.44C76.5674 7.61333 77.3408 8 77.9008 8.6C78.4741 9.2 78.7608 9.95333 78.7608 10.86C78.7608 11.6867 78.5274 12.4133 78.0608 13.04C77.6074 13.6533 76.9474 14.1333 76.0808 14.48C75.2274 14.8267 74.2274 15 73.0808 15H69.5608V12.86ZM68.9208 15C68.8141 15 68.7408 14.9733 68.7008 14.92C68.6608 14.8667 68.6408 14.8 68.6408 14.72V1.08C68.6408 0.986666 68.6608 0.92 68.7008 0.879999C68.7541 0.826666 68.8274 0.799999 68.9208 0.799999H71.0208L71.6808 1.84V13.82L70.9608 15H68.9208ZM80.9325 15C80.8258 15 80.7525 14.9733 80.7125 14.92C80.6725 14.8667 80.6525 14.7933 80.6525 14.7V1.1C80.6525 0.993333 80.6725 0.92 80.7125 0.879999C80.7658 0.826666 80.8392 0.799999 80.9325 0.799999H83.7925V15H80.9325ZM81.4125 12.58H88.8525C88.9592 12.58 89.0325 12.6067 89.0725 12.66C89.1125 12.7133 89.1325 12.78 89.1325 12.86V14.7C89.1325 14.8067 89.1125 14.8867 89.0725 14.94C89.0325 14.98 88.9592 15 88.8525 15H81.4125V12.58ZM81.3925 6.56H88.1525C88.2458 6.56 88.3125 6.58667 88.3525 6.64C88.4058 6.68 88.4325 6.74667 88.4325 6.84V8.58C88.4325 8.68667 88.4058 8.76667 88.3525 8.82C88.3125 8.86 88.2458 8.88 88.1525 8.88H81.3925V6.56ZM81.4125 0.799999H88.8525C88.9592 0.799999 89.0325 0.826666 89.0725 0.879999C89.1125 0.933333 89.1325 1.00667 89.1325 1.1V2.94C89.1325 3.03333 89.1058 3.10667 89.0525 3.16C89.0125 3.2 88.9458 3.22 88.8525 3.22H81.4125V0.799999ZM94.5709 15C94.4643 15 94.3909 14.98 94.3509 14.94C94.3109 14.8867 94.2909 14.8133 94.2909 14.72V0.96H97.5309V14.72C97.5309 14.8133 97.5043 14.8867 97.4509 14.94C97.4109 14.98 97.3443 15 97.2509 15H94.5709ZM90.7709 3.42C90.6776 3.42 90.6043 3.4 90.5509 3.36C90.4976 3.30667 90.4709 3.22667 90.4709 3.12V1.08C90.4709 0.973332 90.4976 0.899999 90.5509 0.86C90.6043 0.819999 90.6776 0.799999 90.7709 0.799999H101.051C101.158 0.799999 101.231 0.826666 101.271 0.879999C101.324 0.933333 101.351 0.999999 101.351 1.08V3.12C101.351 3.22667 101.324 3.30667 101.271 3.36C101.231 3.4 101.158 3.42 101.051 3.42H90.7709Z" fill="white"/>
</svg>
